<svg width="20" height="19" viewBox="0 0 20 19" fill="none" xmlns="http://www.w3.org/2000/svg">
<g clip-path="url(#clip0)">
<rect x="1" y="2.58167" width="18.2761" height="15.398" rx="4" stroke="#C4C4C4" stroke-width="2"/>
<rect x="1.48218" y="3.55103" width="17" height="3" fill="#C4C4C4"/>
<rect x="4.82764" width="1.93106" height="2.10884" fill="#C4C4C4"/>
<rect x="3.48218" y="7.55103" width="1.93106" height="2.10884" fill="#C4C4C4"/>
<rect x="3.48218" y="10.7144" width="1.93106" height="2.10884" fill="#C4C4C4"/>
<rect x="3.48218" y="13.8774" width="1.93106" height="2.10884" fill="#C4C4C4"/>
<rect x="6.37891" y="7.55103" width="1.93106" height="2.10884" fill="#C4C4C4"/>
<rect x="6.37891" y="10.7144" width="1.93106" height="2.10884" fill="#C4C4C4"/>
<rect x="6.37891" y="13.8774" width="1.93106" height="2.10884" fill="#C4C4C4"/>
<rect x="9.27539" y="7.55103" width="1.93106" height="2.10884" fill="#C4C4C4"/>
<rect x="9.27539" y="10.7144" width="1.93106" height="2.10884" fill="#C4C4C4"/>
<rect x="9.27539" y="13.8774" width="1.93106" height="2.10884" fill="#C4C4C4"/>
<rect x="12.1721" y="7.55103" width="1.93106" height="2.10884" fill="#C4C4C4"/>
<rect x="12.1721" y="10.7144" width="1.93106" height="2.10884" fill="#C4C4C4"/>
<rect x="15.0688" y="7.55103" width="1.93106" height="2.10884" fill="#C4C4C4"/>
<rect x="15.0688" y="10.7144" width="1.93106" height="2.10884" fill="#C4C4C4"/>
<rect x="14" width="1.93106" height="2.10884" fill="#C4C4C4"/>
</g>
<defs>
<clipPath id="clip0">
<rect width="20" height="19" fill="white"/>
</clipPath>
</defs>
</svg>
