<svg xmlns="http://www.w3.org/2000/svg" viewBox="0 0 765.68 592.57"><defs><style>.cls-1{fill:#666;}.cls-11,.cls-12,.cls-2,.cls-3,.cls-4,.cls-7{stroke:#000;stroke-miterlimit:10;}.cls-10,.cls-13,.cls-2,.cls-8{opacity:0.4;}.cls-4{fill:#ccc;}.cls-5,.cls-7{fill:#999;}.cls-6{fill:#383838;}.cls-13,.cls-9{fill:#fff;}.cls-11{fill:#c4b339;}.cls-12{fill:#fff24d;}</style></defs><title>Asset 1</title><g id="Layer_2" data-name="Layer 2"><g id="Layer_1-2" data-name="Layer 1"><ellipse class="cls-1" cx="452" cy="501.57" rx="312.5" ry="61.5"/><path d="M452,440.57c83.54,0,162.07,6.44,221.13,18.14C730.88,470.15,764,485.77,764,501.57S730.88,533,673.13,544.43C614.07,556.12,535.54,562.57,452,562.57s-162.07-6.45-221.13-18.14C173.12,533,140,517.37,140,501.57s33.12-31.42,90.87-42.86C289.93,447,368.46,440.57,452,440.57m0-1c-172.87,0-313,27.75-313,62s140.13,62,313,62,313-27.76,313-62-140.13-62-313-62Z"/><path class="cls-2" d="M679.5,459.07c68,14,90,36,85,43-16.86,23.59-94,4.08-162,13-61,8-92,13-95-5-3.68-22.06-76-36-7-59S640,450.94,679.5,459.07Z"/><path d="M452,469.21c-63.54,0-123.27-4.9-168.19-13.8-44.05-8.72-69.31-20.69-69.31-32.84s25.26-24.12,69.31-32.85c44.92-8.9,104.65-13.8,168.19-13.8s123.27,4.9,168.19,13.8c44,8.73,69.31,20.7,69.31,32.85s-25.26,24.12-69.31,32.84C575.27,464.31,515.54,469.21,452,469.21Z"/><path d="M452,376.42c63.51,0,123.21,4.9,168.1,13.79,43.79,8.68,68.9,20.47,68.9,32.36s-25.11,23.68-68.9,32.35c-44.89,8.89-104.59,13.79-168.1,13.79s-123.21-4.9-168.1-13.79c-43.79-8.67-68.9-20.47-68.9-32.35s25.11-23.68,68.9-32.36c44.89-8.89,104.59-13.79,168.1-13.79m0-1c-131.44,0-238,21.11-238,47.15s106.56,47.14,238,47.14,238-21.11,238-47.14-106.56-47.15-238-47.15Z"/><path class="cls-3" d="M689.36,454.07H213.59v43.66H214c1.45,19.83,107.43,35.84,238,35.84,131.46,0,238-16.23,238-36.25C690,496.4,689.36,454.07,689.36,454.07Z"/><path class="cls-4" d="M593.5,518.07c3.51-.13,14-1,14-1,11-2,12-7.4,12-14v-25c0-6.6-5.4-7-12-7h-14a12,12,0,0,0-12,12v22C581.5,511.67,586.9,518.3,593.5,518.07Z"/><path class="cls-4" d="M543.5,524.07c3.51-.13,14-1,14-1a12,12,0,0,0,12-12v-25c0-6.6-5.4-9-12-9h-14a12,12,0,0,0-12,12v22C531.5,517.67,536.9,524.3,543.5,524.07Z"/><rect class="cls-4" x="433.5" y="482.07" width="38" height="46" rx="12"/><path class="cls-4" d="M408.5,527.07c-3.51-.13-14-1-14-1a12,12,0,0,1-12-12v-24c0-6.6,5.4-10,12-10h14a12,12,0,0,1,12,12v22C420.5,520.67,415.1,527.3,408.5,527.07Z"/><path class="cls-4" d="M357.5,524.07c-3.51-.13-14-1-14-1a12,12,0,0,1-12-12v-25c0-6.6,5.4-9,12-9h14a12,12,0,0,1,12,12v22C369.5,517.67,364.1,524.3,357.5,524.07Z"/><path class="cls-4" d="M309.5,520.07c-3.51-.13-14-1-14-1-11-2-12-7.4-12-14v-25c0-6.6,5.4-7,12-7h14a12,12,0,0,1,12,12v22C321.5,513.67,316.1,520.3,309.5,520.07Z"/><path class="cls-4" d="M261.5,511.07a134.36,134.36,0,0,1-17-3c-11-3-9-9.4-9-16v-21c0-6.6,5.4-7,12-7h14a12,12,0,0,1,12,12v22C273.5,504.67,268.08,511.57,261.5,511.07Z"/><path class="cls-4" d="M642.5,511.07a134.36,134.36,0,0,0,17-3c11-3,9-9.4,9-16v-21c0-6.6-5.4-7-12-7h-14a12,12,0,0,0-12,12v22C630.5,504.67,635.92,511.57,642.5,511.07Z"/><path class="cls-4" d="M495.5,527.07c3.51-.13,14-1,14-1a12,12,0,0,0,12-12v-24c0-6.6-5.4-10-12-10h-14a12,12,0,0,0-12,12v22C483.5,520.67,488.9,527.3,495.5,527.07Z"/><path class="cls-5" d="M452,484.07c-172.31,0-312.5-27.59-312.5-61.5s140.19-61.5,312.5-61.5,312.5,27.59,312.5,61.5S624.31,484.07,452,484.07Zm94-50.87c-39.53,0-70.5,6.31-70.5,14.37s31,14.36,70.5,14.36,70.5-6.31,70.5-14.36S585.53,433.2,546,433.2Zm-195,0c-39.53,0-70.5,6.31-70.5,14.37s31,14.36,70.5,14.36,70.5-6.31,70.5-14.36S390.53,433.2,351,433.2Zm299-29c-39.53,0-70.5,6.31-70.5,14.37s31,14.36,70.5,14.36,70.5-6.31,70.5-14.36S689.53,404.2,650,404.2Zm-395,0c-39.53,0-70.5,6.31-70.5,14.37s31,14.36,70.5,14.36,70.5-6.31,70.5-14.36S294.53,404.2,255,404.2Zm288-29c-39.53,0-70.5,6.31-70.5,14.37s31,14.36,70.5,14.36,70.5-6.31,70.5-14.36S582.53,375.2,543,375.2Zm-192,0c-39.53,0-70.5,6.31-70.5,14.37s31,14.36,70.5,14.36,70.5-6.31,70.5-14.36S390.53,375.2,351,375.2Z"/><path d="M452,361.57c83.54,0,162.07,6.44,221.13,18.14C730.88,391.15,764,406.77,764,422.57S730.88,454,673.13,465.43C614.07,477.12,535.54,483.57,452,483.57s-162.07-6.45-221.13-18.14C173.12,454,140,438.37,140,422.57s33.12-31.42,90.87-42.86C289.93,368,368.46,361.57,452,361.57m91,42.86c34.42,0,71-5.21,71-14.86s-36.58-14.87-71-14.87-71,5.21-71,14.87,36.58,14.86,71,14.86m-192,0c34.42,0,71-5.21,71-14.86s-36.58-14.87-71-14.87-71,5.21-71,14.87,36.58,14.86,71,14.86m299,29c34.42,0,71-5.21,71-14.86s-36.58-14.87-71-14.87-71,5.21-71,14.87,36.58,14.86,71,14.86m-395,0c34.42,0,71-5.21,71-14.86s-36.58-14.87-71-14.87-71,5.21-71,14.87,36.58,14.86,71,14.86m291,29c34.42,0,71-5.21,71-14.86s-36.58-14.87-71-14.87-71,5.21-71,14.87,36.58,14.86,71,14.86m-195,0c34.42,0,71-5.21,71-14.86s-36.58-14.87-71-14.87-71,5.21-71,14.87,36.58,14.86,71,14.86M452,360.57c-172.87,0-313,27.75-313,62s140.13,62,313,62,313-27.76,313-62-140.13-62-313-62Zm91,42.86c-38.66,0-70-6.21-70-13.86s31.34-13.87,70-13.87,70,6.21,70,13.87-31.34,13.86-70,13.86Zm-192,0c-38.66,0-70-6.21-70-13.86s31.34-13.87,70-13.87,70,6.21,70,13.87-31.34,13.86-70,13.86Zm299,29c-38.66,0-70-6.21-70-13.86s31.34-13.87,70-13.87,70,6.21,70,13.87-31.34,13.86-70,13.86Zm-395,0c-38.66,0-70-6.21-70-13.86s31.34-13.87,70-13.87,70,6.21,70,13.87-31.34,13.86-70,13.86Zm291,29c-38.66,0-70-6.21-70-13.86s31.34-13.87,70-13.87,70,6.21,70,13.87-31.34,13.86-70,13.86Zm-195,0c-38.66,0-70-6.21-70-13.86s31.34-13.87,70-13.87,70,6.21,70,13.87-31.34,13.86-70,13.86Z"/><ellipse class="cls-6" cx="452.22" cy="418.57" rx="49.98" ry="9.5"/><path d="M452.22,409.57c30.65,0,49.48,5.24,49.48,9s-18.83,9-49.48,9-49.49-5.25-49.49-9,18.83-9,49.49-9m0-1c-27.89,0-50.49,4.47-50.49,10s22.6,10,50.49,10,50.48-4.48,50.48-10-22.6-10-50.48-10Z"/><path class="cls-2" d="M610.6,393.67c-8.67,6-35.87,10.4-68.1,10.4-39.21,0-71-6.5-71-14.5s31.79-14.5,71-14.5a296.52,296.52,0,0,1,40.18,2.54c-23.92-9.73-57.68-16.54-99.18-16.54-104.24,0-201,39.18-217.68,87.77-7.27,21.13-16.58,16.6,30.68,28.23s116.64,6.09,164,7c52,1,134-30,158-57.95C626.71,416.56,623.48,404.66,610.6,393.67Z"/><path class="cls-2" d="M483.5,484.07h-192l-29.4,50.19c-91.54,1.67-162.6,13.93-162.6,28.81,0,16,82.38,29,184,29s191-14,191-30C474.5,562.07,486.5,539.63,483.5,484.07Z"/><path class="cls-1" d="M236,591.07a235.51,235.51,0,1,1,166.52-69A234,234,0,0,1,236,591.07Z"/><path d="M236,120.57A234.19,234.19,0,1,1,144.53,139,233.56,233.56,0,0,1,236,120.57m0-1c-130.34,0-236,105.66-236,236s105.66,236,236,236,236-105.66,236-236-105.66-236-236-236Z"/><circle cx="236" cy="354.57" r="181.5"/><path d="M236,173.57a180.44,180.44,0,1,1-70.45,14.22A179.78,179.78,0,0,1,236,173.57m0-1a182,182,0,1,0,182,182,182,182,0,0,0-182-182Z"/><path class="cls-7" d="M235.5,120.07c-129.79,0-235,105.21-235,235s105.21,235,235,235,235-105.22,235-235S365.29,120.07,235.5,120.07ZM363,214.57a64,64,0,1,1-64,64A64,64,0,0,1,363,214.57Zm-128-74a64,64,0,1,1-64,64A64,64,0,0,1,235,140.57Zm-128,74a64,64,0,1,1-64,64A64,64,0,0,1,107,214.57Zm0,282a64,64,0,1,1,64-64A64,64,0,0,1,107,496.57Zm128,71a64,64,0,1,1,64-64A64,64,0,0,1,235,567.57Zm128-71a64,64,0,1,1,64-64A64,64,0,0,1,363,496.57Z"/><circle class="cls-6" cx="235" cy="355.57" r="46.5"/><path d="M235,309.57a46,46,0,1,1-46,46,46.05,46.05,0,0,1,46-46m0-1a47,47,0,1,0,47,47,47,47,0,0,0-47-47Z"/><g class="cls-8"><path class="cls-9" d="M6,366.57c0-130.34,105.66-236,236-236A235.94,235.94,0,0,1,450.64,256.21,236,236,0,0,0,237,120.57c-130.34,0-236,105.66-236,236A234.86,234.86,0,0,0,28.36,466.92,235,235,0,0,1,6,366.57Z"/></g><path class="cls-2" d="M361.34,157.21A234.72,234.72,0,0,1,463.5,351.07c0,129.78-105.21,235-235,235a233.93,233.93,0,0,1-126.84-37.14A233.94,233.94,0,0,0,234.5,590.07c129.79,0,235-105.22,235-235A234.8,234.8,0,0,0,361.34,157.21Z"/><circle cx="235" cy="355.57" r="24"/><path class="cls-10" d="M388.05,195c-43.49-40.36-81.79-69.8-85.55-65.75s28.45,40.05,71.95,80.41c3,2.81,6,5.55,9,8.25a64.18,64.18,0,0,1,36.64,31.71c21.94,17.9,37.59,28.3,39.92,25.78C463.76,271.36,431.54,235.37,388.05,195Z"/><g id="Crown"><path class="cls-11" d="M372.27,128.28c8,7.86,25.28,4.3,44.15-3.52C428,89.4,452.63,48,452.63,48s-45.41,32.37-80.9,45.09C366.77,108.45,365.55,121.72,372.27,128.28Z"/><path class="cls-11" d="M456.45,209.1c6.34,5.5,17.55,4.16,30.49-.69,10.38-35.72,43.93-85.17,43.93-85.17S487.91,158,454,172.18C449.63,188.58,449,202.66,456.45,209.1Z"/><path class="cls-10" d="M395.54,118.52c17-.49,25.32-5,25.32-5S407.32,152,397.25,153.14c-4.88.55-49.19-39.1-48.77-47.4C348.85,98.33,376.13,119.09,395.54,118.52Z"/><path class="cls-10" d="M470.45,189.22c17-.49,25.32-5,25.32-5s-13.54,38.45-23.61,39.59c-4.88.55-49.19-39.09-48.77-47.4C423.76,169,451,189.78,470.45,189.22Z"/><path class="cls-12" d="M458.11,278.69,299.56,129.07,421,.34s-67.93,100.12-44.54,123c23.76,23.21,123.81-48.16,123.81-48.16S436.63,182,462,204C486.47,225.21,579.59,150,579.59,150Z"/><path class="cls-2" d="M458.43,278.91,579.64,150.16S540.91,194.4,474.1,225.81C417.05,252.63,383,207.37,383,207.37Z"/><path class="cls-13" d="M417,5.42,300.35,129.06l42.54,40.15s-11.23-21.6,4.58-61.67C362.25,70.09,417,5.42,417,5.42Z"/><path class="cls-13" d="M498.32,76.64s-11.55,8-25,16.29-28.67,17.16-35.49,20.13c-34.93,15.15-31.46,12.93-41.32,14.63C389.19,129,380.2,126,380.2,126s29.51,18.21,49.11,10.61C451,128.24,498.32,76.64,498.32,76.64Z"/></g></g></g></svg>